<?xml version="1.0" encoding="UTF-8"?>
<svg xmlns="http://www.w3.org/2000/svg" width="390" height="844" viewBox="0 0 390 844">
  <defs>
    <linearGradient id="sheetGrad" x1="0" y1="0" x2="0" y2="1">
      <stop offset="0%" stop-color="#0d0d14"/>
      <stop offset="50%" stop-color="#0a0a10"/>
      <stop offset="100%" stop-color="#0d0d14"/>
    </linearGradient>
    <linearGradient id="cardBgGrad" x1="0" y1="0" x2="1" y2="0">
      <stop offset="0%" stop-color="rgba(13,13,20,0.95)"/>
      <stop offset="100%" stop-color="rgba(19,19,30,0.6)"/>
    </linearGradient>
    <linearGradient id="leftBar" x1="0" y1="0" x2="0" y2="1">
      <stop offset="0%" stop-color="#00f5d4"/>
      <stop offset="100%" stop-color="#00f5d4" stop-opacity="0.2"/>
    </linearGradient>
    <clipPath id="modalClip">
      <rect x="14" y="115" width="362" height="608" rx="26" ry="26"/>
    </clipPath>
  </defs>
  <rect width="390" height="844" fill="#000000"/>
  <g>
  <text x="27" y="40" fill="#f5f5f7" font-size="17" font-family="'Noto Sans CJK SC','PingFang SC','Microsoft YaHei',system-ui,sans-serif" font-weight="600">05:30</text>
  <rect x="134.5" y="18" width="121" height="33" rx="16.5" fill="#000000" stroke="#27272a" stroke-width="0.5"/>
  <g transform="translate(266,21)" fill="#f5f5f7">
  <rect x="0" y="7" width="3.2" height="5" rx="1"/>
  <rect x="4.5" y="5" width="3.2" height="7" rx="1"/>
  <rect x="9" y="3" width="3.2" height="9" rx="1"/>
  <rect x="13.5" y="1" width="3.2" height="11" rx="1"/>
</g>
  <text x="300" y="37" text-anchor="end" fill="#a1a1aa" font-size="11" font-family="'Noto Sans CJK SC','PingFang SC','Microsoft YaHei',system-ui,sans-serif" font-weight="700">5G</text>
  <g transform="translate(312,22)" fill="none" stroke="#a1a1aa" stroke-width="1.3" stroke-linecap="round">
  <path d="M8 11c2.5-2.2 5.5-2.2 8 0"/>
  <path d="M5.5 8.5c3.6-3.1 8.4-3.1 12 0"/>
  <path d="M3 6c5-4.3 11-4.3 16 0"/>
</g>
  <text x="342" y="36" text-anchor="end" fill="#a1a1aa" font-size="10" font-family="'Noto Sans Mono CJK SC','DejaVu Sans Mono',monospace" font-weight="600">56%</text>
  <g transform="translate(348,20)">
  <rect x="0" y="2" width="22" height="11.5" rx="2.8" fill="none" stroke="#a1a1aa" stroke-width="1"/>
  <rect x="23" y="4.5" width="1.8" height="6" rx="0.4" fill="#a1a1aa"/>
  <rect x="2" y="4" width="9" height="7.5" rx="1.2" fill="#4ade80"/>
  <path d="M7 2 L4.5 6.5h3.2l-1.6 5.5 5.5-6.4H8.2l1.1-3.6z" fill="#fbbf24" stroke="none" transform="translate(1,1.5) scale(0.5)"/>
</g>
</g>
  
  <rect x="0" y="48" width="390" height="796" fill="rgba(0,0,0,0.58)"/>
  <rect x="14" y="115" width="362" height="608" rx="26" ry="26" fill="url(#sheetGrad)" stroke="rgba(0,245,212,0.12)" stroke-width="1.2"/>
  <line x1="14" y1="116" x2="376" y2="116" stroke="#00f5d4" stroke-opacity="0.18" stroke-width="1"/>

  <g clip-path="url(#modalClip)">
  <rect x="50" y="133" width="2" height="32" rx="1" fill="url(#leftBar)"/>
  <text x="60" y="145" fill="rgba(0,245,212,0.75)" font-size="11" font-family="'Noto Sans CJK SC','PingFang SC','Microsoft YaHei',system-ui,sans-serif" font-weight="600" letter-spacing="0.22em">ACTIVITY</text>
  <g transform="translate(330,129)" stroke="#64748b" stroke-width="1.5" stroke-linecap="round">
  <path d="M4 4l8 8"/><path d="M12 4L4 12"/>
</g>
  <text x="60" y="171" fill="#f1f5f9" font-size="17" font-family="'Noto Sans CJK SC','PingFang SC','Microsoft YaHei',system-ui,sans-serif" font-weight="700">资金活动</text>
  <text x="60" y="197" fill="#64748b" font-size="12" font-family="'Noto Sans CJK SC','PingFang SC','Microsoft YaHei',system-ui,sans-serif">钱包相关的链上资金变动，链接在区块浏览器中打开。</text>

  <rect x="32" y="213" width="326" height="1" fill="#00f5d4" fill-opacity="0.08"/>

  <g transform="translate(34,223)" fill="none" stroke="#00f5d4" stroke-width="1.4" stroke-linecap="round" stroke-linejoin="round" opacity="0.5">
  <path d="M2 4.5h12l-5 5.2v4.3l-2 1v-5.3L2 4.5z"/>
</g>
  <text x="58" y="240" fill="#64748b" font-size="12" font-family="'Noto Sans CJK SC','PingFang SC','Microsoft YaHei',system-ui,sans-serif" font-weight="500" letter-spacing="0.06em">按类型筛选</text>
  <rect x="150" y="223" width="168" height="36" rx="18" fill="rgba(10,10,16,0.8)" stroke="rgba(0,245,212,0.12)" stroke-width="1"/>
  <text x="170" y="246" fill="#f1f5f9" font-size="13" font-family="'Noto Sans CJK SC','PingFang SC','Microsoft YaHei',system-ui,sans-serif">全部</text>
  <path d="M 300 235 l3.5 3.5 l3.5-3.5" fill="none" stroke="#64748b" stroke-width="1.2" stroke-linecap="round" stroke-linejoin="round"/>
  <text x="354" y="245" text-anchor="end" fill="#64748b" font-size="12" font-family="'Noto Sans Mono CJK SC','DejaVu Sans Mono',monospace">19 条</text>

  <rect x="14" y="281" width="362" height="442" fill="rgba(5,5,10,0.38)"/>
  <g>
  <rect x="32" y="289" width="326" height="118" rx="16" ry="16" fill="url(#cardBgGrad)" stroke="rgba(0,245,212,0.12)" stroke-width="1"/>
  <text x="48" y="309" fill="#64748b" font-size="12" font-family="'Noto Sans Mono CJK SC','DejaVu Sans Mono',monospace">04/10 08:00:00</text>
  <rect x="48" y="317" width="119" height="22" rx="11" fill="rgba(16,185,129,0.18)"/>
  <text x="60" y="332" fill="#10b981" font-size="11" font-family="'Noto Sans CJK SC','PingFang SC','Microsoft YaHei',system-ui,sans-serif" font-weight="600">质押收益（RWA）</text>
  <text x="342" y="332" text-anchor="end" fill="#10b981" font-size="13" font-family="'Noto Sans Mono CJK SC','DejaVu Sans Mono',monospace" font-weight="600">+23.40 RWA</text>
  <text x="48" y="361" fill="#64748b" font-size="12" font-family="'Noto Sans CJK SC','PingFang SC','Microsoft YaHei',system-ui,sans-serif">区块:</text>
  <text x="84" y="361" fill="#64748b" font-size="12" font-family="'Noto Sans Mono CJK SC','DejaVu Sans Mono',monospace" font-weight="400">—</text>
  
  <text x="48" y="387" fill="#64748b" font-size="11" font-family="'Noto Sans Mono CJK SC','DejaVu Sans Mono',monospace">0x0ff464fa...4a0b9f</text>
  <g transform="translate(328,376)" fill="none" stroke="#64748b" stroke-width="1.2" stroke-linecap="round" stroke-linejoin="round">
  <path d="M10 2h2.5V6"/><path d="M6 10L12 4"/><path d="M12 8v3.5a1 1 0 0 1-1 1H3a1 1 0 0 1-1-1V3.5a1 1 0 0 1 1-1H8"/>
</g>
</g><g>
  <rect x="32" y="415" width="326" height="118" rx="16" ry="16" fill="url(#cardBgGrad)" stroke="rgba(0,245,212,0.12)" stroke-width="1"/>
  <text x="48" y="435" fill="#64748b" font-size="12" font-family="'Noto Sans Mono CJK SC','DejaVu Sans Mono',monospace">04/09 10:24:18</text>
  <rect x="48" y="443" width="86" height="22" rx="11" fill="rgba(139,92,246,0.18)"/>
  <text x="60" y="458" fill="#a78bfa" font-size="11" font-family="'Noto Sans CJK SC','PingFang SC','Microsoft YaHei',system-ui,sans-serif" font-weight="600">质押 RWA</text>
  <text x="342" y="458" text-anchor="end" fill="#a78bfa" font-size="13" font-family="'Noto Sans Mono CJK SC','DejaVu Sans Mono',monospace" font-weight="600">+200.00 RWA</text>
  <text x="48" y="487" fill="#64748b" font-size="12" font-family="'Noto Sans CJK SC','PingFang SC','Microsoft YaHei',system-ui,sans-serif">区块:</text>
  <text x="84" y="487" fill="#00f5d4" font-size="12" font-family="'Noto Sans Mono CJK SC','DejaVu Sans Mono',monospace" font-weight="600">#90953094</text>
  <g transform="translate(146.5,476)" fill="none" stroke="#00f5d4" stroke-width="1.2" stroke-linecap="round" stroke-linejoin="round">
  <path d="M10 2h2.5V6"/><path d="M6 10L12 4"/><path d="M12 8v3.5a1 1 0 0 1-1 1H3a1 1 0 0 1-1-1V3.5a1 1 0 0 1 1-1H8"/>
</g>
  <text x="48" y="513" fill="#64748b" font-size="11" font-family="'Noto Sans Mono CJK SC','DejaVu Sans Mono',monospace">0x2f02e9e2...2027c7</text>
  <g transform="translate(328,502)" fill="none" stroke="#64748b" stroke-width="1.2" stroke-linecap="round" stroke-linejoin="round">
  <path d="M10 2h2.5V6"/><path d="M6 10L12 4"/><path d="M12 8v3.5a1 1 0 0 1-1 1H3a1 1 0 0 1-1-1V3.5a1 1 0 0 1 1-1H8"/>
</g>
</g><g>
  <rect x="32" y="541" width="326" height="118" rx="16" ry="16" fill="url(#cardBgGrad)" stroke="rgba(0,245,212,0.12)" stroke-width="1"/>
  <text x="48" y="561" fill="#64748b" font-size="12" font-family="'Noto Sans Mono CJK SC','DejaVu Sans Mono',monospace">04/08 08:00:00</text>
  <rect x="48" y="569" width="119" height="22" rx="11" fill="rgba(16,185,129,0.18)"/>
  <text x="60" y="584" fill="#10b981" font-size="11" font-family="'Noto Sans CJK SC','PingFang SC','Microsoft YaHei',system-ui,sans-serif" font-weight="600">质押收益（RWA）</text>
  <text x="342" y="584" text-anchor="end" fill="#10b981" font-size="13" font-family="'Noto Sans Mono CJK SC','DejaVu Sans Mono',monospace" font-weight="600">+21.53 RWA</text>
  <text x="48" y="613" fill="#64748b" font-size="12" font-family="'Noto Sans CJK SC','PingFang SC','Microsoft YaHei',system-ui,sans-serif">区块:</text>
  <text x="84" y="613" fill="#64748b" font-size="12" font-family="'Noto Sans Mono CJK SC','DejaVu Sans Mono',monospace" font-weight="400">—</text>
  
  <text x="48" y="639" fill="#64748b" font-size="11" font-family="'Noto Sans Mono CJK SC','DejaVu Sans Mono',monospace">0x503fe8fe...1bc433</text>
  <g transform="translate(328,628)" fill="none" stroke="#64748b" stroke-width="1.2" stroke-linecap="round" stroke-linejoin="round">
  <path d="M10 2h2.5V6"/><path d="M6 10L12 4"/><path d="M12 8v3.5a1 1 0 0 1-1 1H3a1 1 0 0 1-1-1V3.5a1 1 0 0 1 1-1H8"/>
</g>
</g>
  </g>

  <rect x="128" y="832" width="134" height="5" rx="2.5" fill="#f8fafc" opacity="0.55"/>

  
</svg>